<svg width="94" height="94" viewBox="0 0 94 94" fill="none" xmlns="http://www.w3.org/2000/svg">
<g clip-path="url(#clip0_635_4966)">
<path d="M14.6666 23.5C14.6666 21.0688 15.6324 18.7372 17.3515 17.0182C19.0706 15.2991 21.4022 14.3333 23.8333 14.3333H28C30.4204 14.3319 32.742 13.3733 34.4583 11.6666L37.375 8.74997C38.2268 7.8933 39.2396 7.21348 40.3552 6.74958C41.4707 6.28569 42.6669 6.04688 43.875 6.04688C45.0831 6.04688 46.2793 6.28569 47.3948 6.74958C48.5103 7.21348 49.5231 7.8933 50.375 8.74997L53.2916 11.6666C55.0083 13.375 57.3333 14.3333 59.75 14.3333H63.9166C66.3478 14.3333 68.6794 15.2991 70.3985 17.0182C72.1175 18.7372 73.0833 21.0688 73.0833 23.5V27.6666C73.0833 30.0833 74.0416 32.4083 75.75 34.125L78.6666 37.0416C79.5233 37.8935 80.2031 38.9063 80.667 40.0218C81.1309 41.1373 81.3697 42.3335 81.3697 43.5416C81.3697 44.7498 81.1309 45.946 80.667 47.0615C80.2031 48.177 79.5233 49.1898 78.6666 50.0416L75.75 52.9583C74.0433 54.6746 73.0847 56.9962 73.0833 59.4166V63.5833C73.0833 66.0145 72.1175 68.346 70.3985 70.0651C68.6794 71.7842 66.3478 72.75 63.9166 72.75H59.75C57.3296 72.7514 55.0079 73.71 53.2916 75.4166L50.375 78.3333C49.5231 79.19 48.5103 79.8698 47.3948 80.3337C46.2793 80.7976 45.0831 81.0364 43.875 81.0364C42.6669 81.0364 41.4707 80.7976 40.3552 80.3337C39.2396 79.8698 38.2268 79.19 37.375 78.3333L34.4583 75.4166C32.742 73.71 30.4204 72.7514 28 72.75H23.8333C21.4022 72.75 19.0706 71.7842 17.3515 70.0651C15.6324 68.346 14.6666 66.0145 14.6666 63.5833V59.4166C14.6653 56.9962 13.7067 54.6746 12 52.9583L9.08331 50.0416C8.22665 49.1898 7.54682 48.177 7.08293 47.0615C6.61903 45.946 6.38022 44.7498 6.38022 43.5416C6.38022 42.3335 6.61903 41.1373 7.08293 40.0218C7.54682 38.9063 8.22665 37.8935 9.08331 37.0416L12 34.125C13.7067 32.4087 14.6653 30.087 14.6666 27.6666V23.5" stroke="white" stroke-width="2" stroke-linecap="round" stroke-linejoin="round"/>
<path d="M31.3333 43.5003L39.6666 51.8337L56.3333 35.167" stroke="white" stroke-width="2" stroke-linecap="round" stroke-linejoin="round"/>
</g>
<defs>
<clipPath id="clip0_635_4966">
<rect width="100" height="100" fill="white" transform="translate(-6.16669 -6.5)"/>
</clipPath>
</defs>
</svg>
