<svg width="94" height="94" viewBox="0 0 94 94" fill="none" xmlns="http://www.w3.org/2000/svg">
<g clip-path="url(#clip0_635_4940)">
<path d="M26.8333 26.833C26.8333 23.5178 28.3698 20.3384 31.1047 17.9942C33.8396 15.65 37.5489 14.333 41.4166 14.333H45.5833C49.4511 14.333 53.1604 15.65 55.8953 17.9942C58.6302 20.3384 60.1666 23.5178 60.1666 26.833C60.3201 29.5382 59.5903 32.2201 58.0873 34.4746C56.5843 36.7291 54.3895 38.4342 51.8333 39.333C49.2772 40.5315 47.0823 42.8049 45.5793 45.8109C44.0763 48.8169 43.3466 52.3927 43.5 55.9997" stroke="white" stroke-width="2" stroke-linecap="round" stroke-linejoin="round"/>
<path d="M43.5 72.667V72.7087" stroke="white" stroke-width="2" stroke-linecap="round" stroke-linejoin="round"/>
</g>
<defs>
<clipPath id="clip0_635_4940">
<rect width="100" height="100" fill="white" transform="translate(-6.5 -6.5)"/>
</clipPath>
</defs>
</svg>
